name ./resultDataOpenSim/trcMotMarkerGrf/sub10/grf-15-01.mot
datacolumns 19
datarows 12
range 0.90400000 0.94800000
endheader

                time	     ground_force_vx	     ground_force_vy	     ground_force_vz	     ground_force_px	     ground_force_py	     ground_force_pz	   l_ground_force_vx	   l_ground_force_vy	   l_ground_force_vz	   l_ground_force_px	   l_ground_force_py	   l_ground_force_pz	     ground_torque_x	     ground_torque_y	     ground_torque_z	   l_ground_torque_x	   l_ground_torque_y	   l_ground_torque_z	
          0.90400000	          0.00000000	          0.00000000	          0.00000000	          0.00000000	          0.00000000	          0.00000000	         22.06205442	        619.27563523	         33.16151552	         -0.02904944	         -0.09999600	         -0.11329916	          0.00000000	          0.00000000	          0.00000000	          0.00000000	         -1.95523188	          0.00000000	
          0.90800000	          0.00000000	          0.00000000	          0.00000000	          0.00000000	          0.00000000	          0.00000000	         22.79345110	        608.24028351	         34.46857881	         -0.02673805	         -0.09999692	         -0.11349520	          0.00000000	          0.00000000	          0.00000000	          0.00000000	         -1.77753790	          0.00000000	
          0.91200000	          0.00000000	          0.00000000	          0.00000000	          0.00000000	          0.00000000	          0.00000000	         23.45604176	        598.49869805	         35.65088697	         -0.02445399	         -0.09999700	         -0.11346594	          0.00000000	          0.00000000	          0.00000000	          0.00000000	         -1.63405250	          0.00000000	
          0.91600000	          0.00000000	          0.00000000	          0.00000000	          0.00000000	          0.00000000	          0.00000000	         24.15865383	        590.13155217	         36.48964875	         -0.02220356	         -0.09999700	         -0.11318355	          0.00000000	          0.00000000	          0.00000000	          0.00000000	         -1.53267045	          0.00000000	
          0.92000000	          0.00000000	          0.00000000	          0.00000000	          0.00000000	          0.00000000	          0.00000000	         24.97019614	        583.14921845	         36.77950697	         -0.02004210	         -0.09999780	         -0.11268604	          0.00000000	          0.00000000	          0.00000000	          0.00000000	         -1.48160768	          0.00000000	
          0.92400000	          0.00000000	          0.00000000	          0.00000000	          0.00000000	          0.00000000	          0.00000000	         25.97996901	        577.52767262	         36.37194267	         -0.01804440	         -0.09999800	         -0.11205951	          0.00000000	          0.00000000	          0.00000000	          0.00000000	         -1.48678784	          0.00000000	
          0.92800000	          0.00000000	          0.00000000	          0.00000000	          0.00000000	          0.00000000	          0.00000000	         27.34283785	        573.28627919	         35.23269815	         -0.01625904	         -0.09999800	         -0.11139015	          0.00000000	          0.00000000	          0.00000000	          0.00000000	         -1.54952008	          0.00000000	
          0.93200000	          0.00000000	          0.00000000	          0.00000000	          0.00000000	          0.00000000	          0.00000000	         29.23778215	        570.56202713	         33.44819454	         -0.01469768	         -0.09999800	         -0.11073598	          0.00000000	          0.00000000	          0.00000000	          0.00000000	         -1.66561179	          0.00000000	
          0.93600000	          0.00000000	          0.00000000	          0.00000000	          0.00000000	          0.00000000	          0.00000000	         31.76825402	        569.59569914	         31.17547768	         -0.01334685	         -0.09999800	         -0.11012716	          0.00000000	          0.00000000	          0.00000000	          0.00000000	         -1.82617377	          0.00000000	
          0.94000000	          0.00000000	          0.00000000	          0.00000000	          0.00000000	          0.00000000	          0.00000000	         34.89848235	        570.60406984	         28.59355376	         -0.01218327	         -0.09999860	         -0.10956477	          0.00000000	          0.00000000	          0.00000000	          0.00000000	         -2.01946990	          0.00000000	
          0.94400000	          0.00000000	          0.00000000	          0.00000000	          0.00000000	          0.00000000	          0.00000000	         38.48818785	        573.64179069	         25.87964518	         -0.01118554	         -0.09999900	         -0.10903078	          0.00000000	          0.00000000	          0.00000000	          0.00000000	         -2.23291295	          0.00000000	
          0.94800000	          0.00000000	          0.00000000	          0.00000000	          0.00000000	          0.00000000	          0.00000000	         42.38439316	        578.56408218	         23.18789668	         -0.01031348	         -0.09999952	         -0.10850097	          0.00000000	          0.00000000	          0.00000000	          0.00000000	         -2.45463129	          0.00000000	
